<mxfile host="65bd71144e">
    <diagram id="ap_AOA-tryvTreg8famk" name="Страница 1">
        <mxGraphModel dx="1530" dy="583" grid="1" gridSize="10" guides="1" tooltips="1" connect="1" arrows="1" fold="1" page="1" pageScale="1" pageWidth="827" pageHeight="1169" math="0" shadow="0">
            <root>
                <mxCell id="0"/>
                <mxCell id="1" parent="0"/>
                <mxCell id="5" value="" style="edgeStyle=none;html=1;" parent="1" source="3" target="4" edge="1">
                    <mxGeometry relative="1" as="geometry"/>
                </mxCell>
                <mxCell id="3" value="Start" style="ellipse;whiteSpace=wrap;html=1;" parent="1" vertex="1">
                    <mxGeometry x="-390" y="70" width="120" height="70" as="geometry"/>
                </mxCell>
                <mxCell id="7" value="" style="edgeStyle=none;html=1;" parent="1" source="4" target="6" edge="1">
                    <mxGeometry relative="1" as="geometry"/>
                </mxCell>
                <mxCell id="4" value="string[] array1&lt;br&gt;string[] array2&lt;br&gt;int count = 0" style="shape=parallelogram;perimeter=parallelogramPerimeter;whiteSpace=wrap;html=1;fixedSize=1;" parent="1" vertex="1">
                    <mxGeometry x="-390" y="190" width="120" height="60" as="geometry"/>
                </mxCell>
                <mxCell id="10" value="" style="edgeStyle=none;html=1;" parent="1" source="6" target="8" edge="1">
                    <mxGeometry relative="1" as="geometry"/>
                </mxCell>
                <mxCell id="6" value="for (int i = 0;&lt;br&gt;i &amp;lt; array1.length;&lt;br&gt;i++)" style="shape=hexagon;perimeter=hexagonPerimeter2;whiteSpace=wrap;html=1;fixedSize=1;" parent="1" vertex="1">
                    <mxGeometry x="-390" y="300" width="120" height="80" as="geometry"/>
                </mxCell>
                <mxCell id="11" value="no" style="edgeStyle=none;html=1;entryX=0.996;entryY=0.625;entryDx=0;entryDy=0;entryPerimeter=0;" parent="1" source="8" target="6" edge="1">
                    <mxGeometry relative="1" as="geometry">
                        <mxPoint x="-190" y="340" as="targetPoint"/>
                        <Array as="points">
                            <mxPoint x="-190" y="460"/>
                            <mxPoint x="-190" y="350"/>
                        </Array>
                    </mxGeometry>
                </mxCell>
                <mxCell id="13" style="edgeStyle=none;html=1;entryX=0.5;entryY=0;entryDx=0;entryDy=0;" parent="1" source="8" target="12" edge="1">
                    <mxGeometry relative="1" as="geometry"/>
                </mxCell>
                <mxCell id="8" value="if (array1[i].length &amp;lt;=3)" style="rhombus;whiteSpace=wrap;html=1;" parent="1" vertex="1">
                    <mxGeometry x="-425" y="420" width="190" height="80" as="geometry"/>
                </mxCell>
                <mxCell id="14" value="yes" style="edgeStyle=none;html=1;entryX=0;entryY=0.75;entryDx=0;entryDy=0;" parent="1" source="12" target="6" edge="1">
                    <mxGeometry relative="1" as="geometry">
                        <mxPoint x="-490" y="340" as="targetPoint"/>
                        <Array as="points">
                            <mxPoint x="-470" y="580"/>
                            <mxPoint x="-490" y="580"/>
                            <mxPoint x="-490" y="400"/>
                            <mxPoint x="-490" y="370"/>
                            <mxPoint x="-490" y="360"/>
                        </Array>
                    </mxGeometry>
                </mxCell>
                <mxCell id="12" value="array2[count] = array1[i]&lt;br&gt;count++" style="rounded=0;whiteSpace=wrap;html=1;" parent="1" vertex="1">
                    <mxGeometry x="-425" y="550" width="190" height="60" as="geometry"/>
                </mxCell>
            </root>
        </mxGraphModel>
    </diagram>
</mxfile>